<?xml version="1.0" encoding="utf-8"?><!DOCTYPE svg PUBLIC "-//W3C//DTD SVG 1.1//EN"
    "http://www.w3.org/Graphics/SVG/1.1/DTD/svg11.dtd">
<svg enable-background="new 0 0 462 462" height="462px" id="Layer_1" version="1.1" viewBox="0 0 462 462" width="462px"
    x="0px" xmlns="http://www.w3.org/2000/svg" y="0px" xml:space="preserve">
<rect fill="rgb(255,255,255)" height="462" width="462" x="0" y="0" />
    <g transform="translate(28,28)"><g transform="translate(112,0) scale(0.14,0.14)"><g style="fill: rgb(25, 118, 210);" transform="">
<polygon points="0,50 50,100 100,50 50,0" />
</g></g>
        <g transform="translate(126,0) scale(0.14,0.14)"><g style="fill: rgb(25, 118, 210);" transform="">
<polygon points="0,50 50,100 100,50 50,0" />
</g></g>
        <g transform="translate(182,0) scale(0.14,0.14)"><g style="fill: rgb(25, 118, 210);" transform="">
<polygon points="0,50 50,100 100,50 50,0" />
</g></g>
        <g transform="translate(224,0) scale(0.14,0.14)"><g style="fill: rgb(25, 118, 210);" transform="">
<polygon points="0,50 50,100 100,50 50,0" />
</g></g>
        <g transform="translate(238,0) scale(0.14,0.14)"><g style="fill: rgb(25, 118, 210);" transform="">
<polygon points="0,50 50,100 100,50 50,0" />
</g></g>
        <g transform="translate(252,0) scale(0.14,0.14)"><g style="fill: rgb(25, 118, 210);" transform="">
<polygon points="0,50 50,100 100,50 50,0" />
</g></g>
        <g transform="translate(266,0) scale(0.14,0.14)"><g style="fill: rgb(25, 118, 210);" transform="">
<polygon points="0,50 50,100 100,50 50,0" />
</g></g>
        <g transform="translate(280,0) scale(0.14,0.14)"><g style="fill: rgb(25, 118, 210);" transform="">
<polygon points="0,50 50,100 100,50 50,0" />
</g></g>
        <g transform="translate(112,14) scale(0.14,0.14)"><g style="fill: rgb(25, 118, 210);" transform="">
<polygon points="0,50 50,100 100,50 50,0" />
</g></g>
        <g transform="translate(126,14) scale(0.14,0.14)"><g style="fill: rgb(25, 118, 210);" transform="">
<polygon points="0,50 50,100 100,50 50,0" />
</g></g>
        <g transform="translate(154,14) scale(0.14,0.14)"><g style="fill: rgb(25, 118, 210);" transform="">
<polygon points="0,50 50,100 100,50 50,0" />
</g></g>
        <g transform="translate(168,14) scale(0.14,0.14)"><g style="fill: rgb(25, 118, 210);" transform="">
<polygon points="0,50 50,100 100,50 50,0" />
</g></g>
        <g transform="translate(182,14) scale(0.14,0.14)"><g style="fill: rgb(25, 118, 210);" transform="">
<polygon points="0,50 50,100 100,50 50,0" />
</g></g>
        <g transform="translate(224,14) scale(0.14,0.14)"><g style="fill: rgb(25, 118, 210);" transform="">
<polygon points="0,50 50,100 100,50 50,0" />
</g></g>
        <g transform="translate(238,14) scale(0.14,0.14)"><g style="fill: rgb(25, 118, 210);" transform="">
<polygon points="0,50 50,100 100,50 50,0" />
</g></g>
        <g transform="translate(252,14) scale(0.14,0.14)"><g style="fill: rgb(25, 118, 210);" transform="">
<polygon points="0,50 50,100 100,50 50,0" />
</g></g>
        <g transform="translate(126,28) scale(0.14,0.14)"><g style="fill: rgb(25, 118, 210);" transform="">
<polygon points="0,50 50,100 100,50 50,0" />
</g></g>
        <g transform="translate(140,28) scale(0.14,0.14)"><g style="fill: rgb(25, 118, 210);" transform="">
<polygon points="0,50 50,100 100,50 50,0" />
</g></g>
        <g transform="translate(154,28) scale(0.14,0.14)"><g style="fill: rgb(25, 118, 210);" transform="">
<polygon points="0,50 50,100 100,50 50,0" />
</g></g>
        <g transform="translate(182,28) scale(0.14,0.14)"><g style="fill: rgb(25, 118, 210);" transform="">
<polygon points="0,50 50,100 100,50 50,0" />
</g></g>
        <g transform="translate(210,28) scale(0.14,0.14)"><g style="fill: rgb(25, 118, 210);" transform="">
<polygon points="0,50 50,100 100,50 50,0" />
</g></g>
        <g transform="translate(252,28) scale(0.14,0.14)"><g style="fill: rgb(25, 118, 210);" transform="">
<polygon points="0,50 50,100 100,50 50,0" />
</g></g>
        <g transform="translate(280,28) scale(0.14,0.14)"><g style="fill: rgb(25, 118, 210);" transform="">
<polygon points="0,50 50,100 100,50 50,0" />
</g></g>
        <g transform="translate(112,42) scale(0.14,0.14)"><g style="fill: rgb(25, 118, 210);" transform="">
<polygon points="0,50 50,100 100,50 50,0" />
</g></g>
        <g transform="translate(154,42) scale(0.14,0.14)"><g style="fill: rgb(25, 118, 210);" transform="">
<polygon points="0,50 50,100 100,50 50,0" />
</g></g>
        <g transform="translate(168,42) scale(0.14,0.14)"><g style="fill: rgb(25, 118, 210);" transform="">
<polygon points="0,50 50,100 100,50 50,0" />
</g></g>
        <g transform="translate(182,42) scale(0.14,0.14)"><g style="fill: rgb(25, 118, 210);" transform="">
<polygon points="0,50 50,100 100,50 50,0" />
</g></g>
        <g transform="translate(238,42) scale(0.14,0.14)"><g style="fill: rgb(25, 118, 210);" transform="">
<polygon points="0,50 50,100 100,50 50,0" />
</g></g>
        <g transform="translate(252,42) scale(0.14,0.14)"><g style="fill: rgb(25, 118, 210);" transform="">
<polygon points="0,50 50,100 100,50 50,0" />
</g></g>
        <g transform="translate(266,42) scale(0.14,0.14)"><g style="fill: rgb(25, 118, 210);" transform="">
<polygon points="0,50 50,100 100,50 50,0" />
</g></g>
        <g transform="translate(126,56) scale(0.14,0.14)"><g style="fill: rgb(25, 118, 210);" transform="">
<polygon points="0,50 50,100 100,50 50,0" />
</g></g>
        <g transform="translate(140,56) scale(0.14,0.14)"><g style="fill: rgb(25, 118, 210);" transform="">
<polygon points="0,50 50,100 100,50 50,0" />
</g></g>
        <g transform="translate(154,56) scale(0.14,0.14)"><g style="fill: rgb(25, 118, 210);" transform="">
<polygon points="0,50 50,100 100,50 50,0" />
</g></g>
        <g transform="translate(182,56) scale(0.14,0.14)"><g style="fill: rgb(25, 118, 210);" transform="">
<polygon points="0,50 50,100 100,50 50,0" />
</g></g>
        <g transform="translate(210,56) scale(0.14,0.14)"><g style="fill: rgb(25, 118, 210);" transform="">
<polygon points="0,50 50,100 100,50 50,0" />
</g></g>
        <g transform="translate(224,56) scale(0.14,0.14)"><g style="fill: rgb(25, 118, 210);" transform="">
<polygon points="0,50 50,100 100,50 50,0" />
</g></g>
        <g transform="translate(266,56) scale(0.14,0.14)"><g style="fill: rgb(25, 118, 210);" transform="">
<polygon points="0,50 50,100 100,50 50,0" />
</g></g>
        <g transform="translate(196,70) scale(0.14,0.14)"><g style="fill: rgb(25, 118, 210);" transform="">
<polygon points="0,50 50,100 100,50 50,0" />
</g></g>
        <g transform="translate(238,70) scale(0.14,0.14)"><g style="fill: rgb(25, 118, 210);" transform="">
<polygon points="0,50 50,100 100,50 50,0" />
</g></g>
        <g transform="translate(252,70) scale(0.14,0.14)"><g style="fill: rgb(25, 118, 210);" transform="">
<polygon points="0,50 50,100 100,50 50,0" />
</g></g>
        <g transform="translate(266,70) scale(0.14,0.14)"><g style="fill: rgb(25, 118, 210);" transform="">
<polygon points="0,50 50,100 100,50 50,0" />
</g></g>
        <g transform="translate(280,70) scale(0.14,0.14)"><g style="fill: rgb(25, 118, 210);" transform="">
<polygon points="0,50 50,100 100,50 50,0" />
</g></g>
        <g transform="translate(112,84) scale(0.14,0.14)"><g style="fill: rgb(25, 118, 210);" transform="">
<polygon points="0,50 50,100 100,50 50,0" />
</g></g>
        <g transform="translate(140,84) scale(0.14,0.14)"><g style="fill: rgb(25, 118, 210);" transform="">
<polygon points="0,50 50,100 100,50 50,0" />
</g></g>
        <g transform="translate(168,84) scale(0.14,0.14)"><g style="fill: rgb(25, 118, 210);" transform="">
<polygon points="0,50 50,100 100,50 50,0" />
</g></g>
        <g transform="translate(196,84) scale(0.14,0.14)"><g style="fill: rgb(25, 118, 210);" transform="">
<polygon points="0,50 50,100 100,50 50,0" />
</g></g>
        <g transform="translate(224,84) scale(0.14,0.14)"><g style="fill: rgb(25, 118, 210);" transform="">
<polygon points="0,50 50,100 100,50 50,0" />
</g></g>
        <g transform="translate(252,84) scale(0.14,0.14)"><g style="fill: rgb(25, 118, 210);" transform="">
<polygon points="0,50 50,100 100,50 50,0" />
</g></g>
        <g transform="translate(280,84) scale(0.14,0.14)"><g style="fill: rgb(25, 118, 210);" transform="">
<polygon points="0,50 50,100 100,50 50,0" />
</g></g>
        <g transform="translate(112,98) scale(0.14,0.14)"><g style="fill: rgb(25, 118, 210);" transform="">
<polygon points="0,50 50,100 100,50 50,0" />
</g></g>
        <g transform="translate(140,98) scale(0.14,0.14)"><g style="fill: rgb(25, 118, 210);" transform="">
<polygon points="0,50 50,100 100,50 50,0" />
</g></g>
        <g transform="translate(154,98) scale(0.14,0.14)"><g style="fill: rgb(25, 118, 210);" transform="">
<polygon points="0,50 50,100 100,50 50,0" />
</g></g>
        <g transform="translate(168,98) scale(0.14,0.14)"><g style="fill: rgb(25, 118, 210);" transform="">
<polygon points="0,50 50,100 100,50 50,0" />
</g></g>
        <g transform="translate(210,98) scale(0.14,0.14)"><g style="fill: rgb(25, 118, 210);" transform="">
<polygon points="0,50 50,100 100,50 50,0" />
</g></g>
        <g transform="translate(238,98) scale(0.14,0.14)"><g style="fill: rgb(25, 118, 210);" transform="">
<polygon points="0,50 50,100 100,50 50,0" />
</g></g>
        <g transform="translate(252,98) scale(0.14,0.14)"><g style="fill: rgb(25, 118, 210);" transform="">
<polygon points="0,50 50,100 100,50 50,0" />
</g></g>
        <g transform="translate(266,98) scale(0.14,0.14)"><g style="fill: rgb(25, 118, 210);" transform="">
<polygon points="0,50 50,100 100,50 50,0" />
</g></g>
        <g transform="translate(280,98) scale(0.14,0.14)"><g style="fill: rgb(25, 118, 210);" transform="">
<polygon points="0,50 50,100 100,50 50,0" />
</g></g>
        <g transform="translate(0,112) scale(0.14,0.14)"><g style="fill: rgb(25, 118, 210);" transform="">
<polygon points="0,50 50,100 100,50 50,0" />
</g></g>
        <g transform="translate(28,112) scale(0.14,0.14)"><g style="fill: rgb(25, 118, 210);" transform="">
<polygon points="0,50 50,100 100,50 50,0" />
</g></g>
        <g transform="translate(42,112) scale(0.14,0.14)"><g style="fill: rgb(25, 118, 210);" transform="">
<polygon points="0,50 50,100 100,50 50,0" />
</g></g>
        <g transform="translate(70,112) scale(0.14,0.14)"><g style="fill: rgb(25, 118, 210);" transform="">
<polygon points="0,50 50,100 100,50 50,0" />
</g></g>
        <g transform="translate(84,112) scale(0.14,0.14)"><g style="fill: rgb(25, 118, 210);" transform="">
<polygon points="0,50 50,100 100,50 50,0" />
</g></g>
        <g transform="translate(98,112) scale(0.14,0.14)"><g style="fill: rgb(25, 118, 210);" transform="">
<polygon points="0,50 50,100 100,50 50,0" />
</g></g>
        <g transform="translate(140,112) scale(0.14,0.14)"><g style="fill: rgb(25, 118, 210);" transform="">
<polygon points="0,50 50,100 100,50 50,0" />
</g></g>
        <g transform="translate(182,112) scale(0.14,0.14)"><g style="fill: rgb(25, 118, 210);" transform="">
<polygon points="0,50 50,100 100,50 50,0" />
</g></g>
        <g transform="translate(238,112) scale(0.14,0.14)"><g style="fill: rgb(25, 118, 210);" transform="">
<polygon points="0,50 50,100 100,50 50,0" />
</g></g>
        <g transform="translate(252,112) scale(0.14,0.14)"><g style="fill: rgb(25, 118, 210);" transform="">
<polygon points="0,50 50,100 100,50 50,0" />
</g></g>
        <g transform="translate(266,112) scale(0.14,0.14)"><g style="fill: rgb(25, 118, 210);" transform="">
<polygon points="0,50 50,100 100,50 50,0" />
</g></g>
        <g transform="translate(308,112) scale(0.14,0.14)"><g style="fill: rgb(25, 118, 210);" transform="">
<polygon points="0,50 50,100 100,50 50,0" />
</g></g>
        <g transform="translate(350,112) scale(0.14,0.14)"><g style="fill: rgb(25, 118, 210);" transform="">
<polygon points="0,50 50,100 100,50 50,0" />
</g></g>
        <g transform="translate(378,112) scale(0.14,0.14)"><g style="fill: rgb(25, 118, 210);" transform="">
<polygon points="0,50 50,100 100,50 50,0" />
</g></g>
        <g transform="translate(392,112) scale(0.14,0.14)"><g style="fill: rgb(25, 118, 210);" transform="">
<polygon points="0,50 50,100 100,50 50,0" />
</g></g>
        <g transform="translate(0,126) scale(0.14,0.14)"><g style="fill: rgb(25, 118, 210);" transform="">
<polygon points="0,50 50,100 100,50 50,0" />
</g></g>
        <g transform="translate(28,126) scale(0.14,0.14)"><g style="fill: rgb(25, 118, 210);" transform="">
<polygon points="0,50 50,100 100,50 50,0" />
</g></g>
        <g transform="translate(42,126) scale(0.14,0.14)"><g style="fill: rgb(25, 118, 210);" transform="">
<polygon points="0,50 50,100 100,50 50,0" />
</g></g>
        <g transform="translate(98,126) scale(0.14,0.14)"><g style="fill: rgb(25, 118, 210);" transform="">
<polygon points="0,50 50,100 100,50 50,0" />
</g></g>
        <g transform="translate(140,126) scale(0.14,0.14)"><g style="fill: rgb(25, 118, 210);" transform="">
<polygon points="0,50 50,100 100,50 50,0" />
</g></g>
        <g transform="translate(182,126) scale(0.14,0.14)"><g style="fill: rgb(25, 118, 210);" transform="">
<polygon points="0,50 50,100 100,50 50,0" />
</g></g>
        <g transform="translate(224,126) scale(0.14,0.14)"><g style="fill: rgb(25, 118, 210);" transform="">
<polygon points="0,50 50,100 100,50 50,0" />
</g></g>
        <g transform="translate(238,126) scale(0.14,0.14)"><g style="fill: rgb(25, 118, 210);" transform="">
<polygon points="0,50 50,100 100,50 50,0" />
</g></g>
        <g transform="translate(252,126) scale(0.14,0.14)"><g style="fill: rgb(25, 118, 210);" transform="">
<polygon points="0,50 50,100 100,50 50,0" />
</g></g>
        <g transform="translate(266,126) scale(0.14,0.14)"><g style="fill: rgb(25, 118, 210);" transform="">
<polygon points="0,50 50,100 100,50 50,0" />
</g></g>
        <g transform="translate(280,126) scale(0.14,0.14)"><g style="fill: rgb(25, 118, 210);" transform="">
<polygon points="0,50 50,100 100,50 50,0" />
</g></g>
        <g transform="translate(308,126) scale(0.14,0.14)"><g style="fill: rgb(25, 118, 210);" transform="">
<polygon points="0,50 50,100 100,50 50,0" />
</g></g>
        <g transform="translate(322,126) scale(0.14,0.14)"><g style="fill: rgb(25, 118, 210);" transform="">
<polygon points="0,50 50,100 100,50 50,0" />
</g></g>
        <g transform="translate(336,126) scale(0.14,0.14)"><g style="fill: rgb(25, 118, 210);" transform="">
<polygon points="0,50 50,100 100,50 50,0" />
</g></g>
        <g transform="translate(392,126) scale(0.14,0.14)"><g style="fill: rgb(25, 118, 210);" transform="">
<polygon points="0,50 50,100 100,50 50,0" />
</g></g>
        <g transform="translate(28,140) scale(0.14,0.14)"><g style="fill: rgb(25, 118, 210);" transform="">
<polygon points="0,50 50,100 100,50 50,0" />
</g></g>
        <g transform="translate(70,140) scale(0.14,0.14)"><g style="fill: rgb(25, 118, 210);" transform="">
<polygon points="0,50 50,100 100,50 50,0" />
</g></g>
        <g transform="translate(84,140) scale(0.14,0.14)"><g style="fill: rgb(25, 118, 210);" transform="">
<polygon points="0,50 50,100 100,50 50,0" />
</g></g>
        <g transform="translate(98,140) scale(0.14,0.14)"><g style="fill: rgb(25, 118, 210);" transform="">
<polygon points="0,50 50,100 100,50 50,0" />
</g></g>
        <g transform="translate(112,140) scale(0.14,0.14)"><g style="fill: rgb(25, 118, 210);" transform="">
<polygon points="0,50 50,100 100,50 50,0" />
</g></g>
        <g transform="translate(126,140) scale(0.14,0.14)"><g style="fill: rgb(25, 118, 210);" transform="">
<polygon points="0,50 50,100 100,50 50,0" />
</g></g>
        <g transform="translate(168,140) scale(0.14,0.14)"><g style="fill: rgb(25, 118, 210);" transform="">
<polygon points="0,50 50,100 100,50 50,0" />
</g></g>
        <g transform="translate(182,140) scale(0.14,0.14)"><g style="fill: rgb(25, 118, 210);" transform="">
<polygon points="0,50 50,100 100,50 50,0" />
</g></g>
        <g transform="translate(224,140) scale(0.14,0.14)"><g style="fill: rgb(25, 118, 210);" transform="">
<polygon points="0,50 50,100 100,50 50,0" />
</g></g>
        <g transform="translate(280,140) scale(0.14,0.14)"><g style="fill: rgb(25, 118, 210);" transform="">
<polygon points="0,50 50,100 100,50 50,0" />
</g></g>
        <g transform="translate(322,140) scale(0.14,0.14)"><g style="fill: rgb(25, 118, 210);" transform="">
<polygon points="0,50 50,100 100,50 50,0" />
</g></g>
        <g transform="translate(336,140) scale(0.14,0.14)"><g style="fill: rgb(25, 118, 210);" transform="">
<polygon points="0,50 50,100 100,50 50,0" />
</g></g>
        <g transform="translate(364,140) scale(0.14,0.14)"><g style="fill: rgb(25, 118, 210);" transform="">
<polygon points="0,50 50,100 100,50 50,0" />
</g></g>
        <g transform="translate(378,140) scale(0.14,0.14)"><g style="fill: rgb(25, 118, 210);" transform="">
<polygon points="0,50 50,100 100,50 50,0" />
</g></g>
        <g transform="translate(0,154) scale(0.14,0.14)"><g style="fill: rgb(25, 118, 210);" transform="">
<polygon points="0,50 50,100 100,50 50,0" />
</g></g>
        <g transform="translate(14,154) scale(0.14,0.14)"><g style="fill: rgb(25, 118, 210);" transform="">
<polygon points="0,50 50,100 100,50 50,0" />
</g></g>
        <g transform="translate(42,154) scale(0.14,0.14)"><g style="fill: rgb(25, 118, 210);" transform="">
<polygon points="0,50 50,100 100,50 50,0" />
</g></g>
        <g transform="translate(98,154) scale(0.14,0.14)"><g style="fill: rgb(25, 118, 210);" transform="">
<polygon points="0,50 50,100 100,50 50,0" />
</g></g>
        <g transform="translate(154,154) scale(0.14,0.14)"><g style="fill: rgb(25, 118, 210);" transform="">
<polygon points="0,50 50,100 100,50 50,0" />
</g></g>
        <g transform="translate(168,154) scale(0.14,0.14)"><g style="fill: rgb(25, 118, 210);" transform="">
<polygon points="0,50 50,100 100,50 50,0" />
</g></g>
        <g transform="translate(224,154) scale(0.14,0.14)"><g style="fill: rgb(25, 118, 210);" transform="">
<polygon points="0,50 50,100 100,50 50,0" />
</g></g>
        <g transform="translate(280,154) scale(0.14,0.14)"><g style="fill: rgb(25, 118, 210);" transform="">
<polygon points="0,50 50,100 100,50 50,0" />
</g></g>
        <g transform="translate(308,154) scale(0.14,0.14)"><g style="fill: rgb(25, 118, 210);" transform="">
<polygon points="0,50 50,100 100,50 50,0" />
</g></g>
        <g transform="translate(322,154) scale(0.14,0.14)"><g style="fill: rgb(25, 118, 210);" transform="">
<polygon points="0,50 50,100 100,50 50,0" />
</g></g>
        <g transform="translate(336,154) scale(0.14,0.14)"><g style="fill: rgb(25, 118, 210);" transform="">
<polygon points="0,50 50,100 100,50 50,0" />
</g></g>
        <g transform="translate(392,154) scale(0.14,0.14)"><g style="fill: rgb(25, 118, 210);" transform="">
<polygon points="0,50 50,100 100,50 50,0" />
</g></g>
        <g transform="translate(0,168) scale(0.14,0.14)"><g style="fill: rgb(25, 118, 210);" transform="">
<polygon points="0,50 50,100 100,50 50,0" />
</g></g>
        <g transform="translate(14,168) scale(0.14,0.14)"><g style="fill: rgb(25, 118, 210);" transform="">
<polygon points="0,50 50,100 100,50 50,0" />
</g></g>
        <g transform="translate(56,168) scale(0.14,0.14)"><g style="fill: rgb(25, 118, 210);" transform="">
<polygon points="0,50 50,100 100,50 50,0" />
</g></g>
        <g transform="translate(84,168) scale(0.14,0.14)"><g style="fill: rgb(25, 118, 210);" transform="">
<polygon points="0,50 50,100 100,50 50,0" />
</g></g>
        <g transform="translate(98,168) scale(0.14,0.14)"><g style="fill: rgb(25, 118, 210);" transform="">
<polygon points="0,50 50,100 100,50 50,0" />
</g></g>
        <g transform="translate(112,168) scale(0.14,0.14)"><g style="fill: rgb(25, 118, 210);" transform="">
<polygon points="0,50 50,100 100,50 50,0" />
</g></g>
        <g transform="translate(140,168) scale(0.14,0.14)"><g style="fill: rgb(25, 118, 210);" transform="">
<polygon points="0,50 50,100 100,50 50,0" />
</g></g>
        <g transform="translate(154,168) scale(0.14,0.14)"><g style="fill: rgb(25, 118, 210);" transform="">
<polygon points="0,50 50,100 100,50 50,0" />
</g></g>
        <g transform="translate(168,168) scale(0.14,0.14)"><g style="fill: rgb(25, 118, 210);" transform="">
<polygon points="0,50 50,100 100,50 50,0" />
</g></g>
        <g transform="translate(196,168) scale(0.14,0.14)"><g style="fill: rgb(25, 118, 210);" transform="">
<polygon points="0,50 50,100 100,50 50,0" />
</g></g>
        <g transform="translate(210,168) scale(0.14,0.14)"><g style="fill: rgb(25, 118, 210);" transform="">
<polygon points="0,50 50,100 100,50 50,0" />
</g></g>
        <g transform="translate(238,168) scale(0.14,0.14)"><g style="fill: rgb(25, 118, 210);" transform="">
<polygon points="0,50 50,100 100,50 50,0" />
</g></g>
        <g transform="translate(266,168) scale(0.14,0.14)"><g style="fill: rgb(25, 118, 210);" transform="">
<polygon points="0,50 50,100 100,50 50,0" />
</g></g>
        <g transform="translate(350,168) scale(0.14,0.14)"><g style="fill: rgb(25, 118, 210);" transform="">
<polygon points="0,50 50,100 100,50 50,0" />
</g></g>
        <g transform="translate(364,168) scale(0.14,0.14)"><g style="fill: rgb(25, 118, 210);" transform="">
<polygon points="0,50 50,100 100,50 50,0" />
</g></g>
        <g transform="translate(0,182) scale(0.14,0.14)"><g style="fill: rgb(25, 118, 210);" transform="">
<polygon points="0,50 50,100 100,50 50,0" />
</g></g>
        <g transform="translate(14,182) scale(0.14,0.14)"><g style="fill: rgb(25, 118, 210);" transform="">
<polygon points="0,50 50,100 100,50 50,0" />
</g></g>
        <g transform="translate(42,182) scale(0.14,0.14)"><g style="fill: rgb(25, 118, 210);" transform="">
<polygon points="0,50 50,100 100,50 50,0" />
</g></g>
        <g transform="translate(56,182) scale(0.14,0.14)"><g style="fill: rgb(25, 118, 210);" transform="">
<polygon points="0,50 50,100 100,50 50,0" />
</g></g>
        <g transform="translate(112,182) scale(0.14,0.14)"><g style="fill: rgb(25, 118, 210);" transform="">
<polygon points="0,50 50,100 100,50 50,0" />
</g></g>
        <g transform="translate(126,182) scale(0.14,0.14)"><g style="fill: rgb(25, 118, 210);" transform="">
<polygon points="0,50 50,100 100,50 50,0" />
</g></g>
        <g transform="translate(154,182) scale(0.14,0.14)"><g style="fill: rgb(25, 118, 210);" transform="">
<polygon points="0,50 50,100 100,50 50,0" />
</g></g>
        <g transform="translate(168,182) scale(0.14,0.14)"><g style="fill: rgb(25, 118, 210);" transform="">
<polygon points="0,50 50,100 100,50 50,0" />
</g></g>
        <g transform="translate(196,182) scale(0.14,0.14)"><g style="fill: rgb(25, 118, 210);" transform="">
<polygon points="0,50 50,100 100,50 50,0" />
</g></g>
        <g transform="translate(210,182) scale(0.14,0.14)"><g style="fill: rgb(25, 118, 210);" transform="">
<polygon points="0,50 50,100 100,50 50,0" />
</g></g>
        <g transform="translate(224,182) scale(0.14,0.14)"><g style="fill: rgb(25, 118, 210);" transform="">
<polygon points="0,50 50,100 100,50 50,0" />
</g></g>
        <g transform="translate(266,182) scale(0.14,0.14)"><g style="fill: rgb(25, 118, 210);" transform="">
<polygon points="0,50 50,100 100,50 50,0" />
</g></g>
        <g transform="translate(280,182) scale(0.14,0.14)"><g style="fill: rgb(25, 118, 210);" transform="">
<polygon points="0,50 50,100 100,50 50,0" />
</g></g>
        <g transform="translate(308,182) scale(0.14,0.14)"><g style="fill: rgb(25, 118, 210);" transform="">
<polygon points="0,50 50,100 100,50 50,0" />
</g></g>
        <g transform="translate(322,182) scale(0.14,0.14)"><g style="fill: rgb(25, 118, 210);" transform="">
<polygon points="0,50 50,100 100,50 50,0" />
</g></g>
        <g transform="translate(364,182) scale(0.14,0.14)"><g style="fill: rgb(25, 118, 210);" transform="">
<polygon points="0,50 50,100 100,50 50,0" />
</g></g>
        <g transform="translate(378,182) scale(0.14,0.14)"><g style="fill: rgb(25, 118, 210);" transform="">
<polygon points="0,50 50,100 100,50 50,0" />
</g></g>
        <g transform="translate(392,182) scale(0.14,0.14)"><g style="fill: rgb(25, 118, 210);" transform="">
<polygon points="0,50 50,100 100,50 50,0" />
</g></g>
        <g transform="translate(0,196) scale(0.14,0.14)"><g style="fill: rgb(25, 118, 210);" transform="">
<polygon points="0,50 50,100 100,50 50,0" />
</g></g>
        <g transform="translate(28,196) scale(0.14,0.14)"><g style="fill: rgb(25, 118, 210);" transform="">
<polygon points="0,50 50,100 100,50 50,0" />
</g></g>
        <g transform="translate(42,196) scale(0.14,0.14)"><g style="fill: rgb(25, 118, 210);" transform="">
<polygon points="0,50 50,100 100,50 50,0" />
</g></g>
        <g transform="translate(84,196) scale(0.14,0.14)"><g style="fill: rgb(25, 118, 210);" transform="">
<polygon points="0,50 50,100 100,50 50,0" />
</g></g>
        <g transform="translate(98,196) scale(0.14,0.14)"><g style="fill: rgb(25, 118, 210);" transform="">
<polygon points="0,50 50,100 100,50 50,0" />
</g></g>
        <g transform="translate(126,196) scale(0.14,0.14)"><g style="fill: rgb(25, 118, 210);" transform="">
<polygon points="0,50 50,100 100,50 50,0" />
</g></g>
        <g transform="translate(168,196) scale(0.14,0.14)"><g style="fill: rgb(25, 118, 210);" transform="">
<polygon points="0,50 50,100 100,50 50,0" />
</g></g>
        <g transform="translate(182,196) scale(0.14,0.14)"><g style="fill: rgb(25, 118, 210);" transform="">
<polygon points="0,50 50,100 100,50 50,0" />
</g></g>
        <g transform="translate(224,196) scale(0.14,0.14)"><g style="fill: rgb(25, 118, 210);" transform="">
<polygon points="0,50 50,100 100,50 50,0" />
</g></g>
        <g transform="translate(238,196) scale(0.14,0.14)"><g style="fill: rgb(25, 118, 210);" transform="">
<polygon points="0,50 50,100 100,50 50,0" />
</g></g>
        <g transform="translate(252,196) scale(0.14,0.14)"><g style="fill: rgb(25, 118, 210);" transform="">
<polygon points="0,50 50,100 100,50 50,0" />
</g></g>
        <g transform="translate(266,196) scale(0.14,0.14)"><g style="fill: rgb(25, 118, 210);" transform="">
<polygon points="0,50 50,100 100,50 50,0" />
</g></g>
        <g transform="translate(308,196) scale(0.14,0.14)"><g style="fill: rgb(25, 118, 210);" transform="">
<polygon points="0,50 50,100 100,50 50,0" />
</g></g>
        <g transform="translate(322,196) scale(0.14,0.14)"><g style="fill: rgb(25, 118, 210);" transform="">
<polygon points="0,50 50,100 100,50 50,0" />
</g></g>
        <g transform="translate(336,196) scale(0.14,0.14)"><g style="fill: rgb(25, 118, 210);" transform="">
<polygon points="0,50 50,100 100,50 50,0" />
</g></g>
        <g transform="translate(364,196) scale(0.14,0.14)"><g style="fill: rgb(25, 118, 210);" transform="">
<polygon points="0,50 50,100 100,50 50,0" />
</g></g>
        <g transform="translate(378,196) scale(0.14,0.14)"><g style="fill: rgb(25, 118, 210);" transform="">
<polygon points="0,50 50,100 100,50 50,0" />
</g></g>
        <g transform="translate(392,196) scale(0.14,0.14)"><g style="fill: rgb(25, 118, 210);" transform="">
<polygon points="0,50 50,100 100,50 50,0" />
</g></g>
        <g transform="translate(28,210) scale(0.14,0.14)"><g style="fill: rgb(25, 118, 210);" transform="">
<polygon points="0,50 50,100 100,50 50,0" />
</g></g>
        <g transform="translate(56,210) scale(0.14,0.14)"><g style="fill: rgb(25, 118, 210);" transform="">
<polygon points="0,50 50,100 100,50 50,0" />
</g></g>
        <g transform="translate(70,210) scale(0.14,0.14)"><g style="fill: rgb(25, 118, 210);" transform="">
<polygon points="0,50 50,100 100,50 50,0" />
</g></g>
        <g transform="translate(112,210) scale(0.14,0.14)"><g style="fill: rgb(25, 118, 210);" transform="">
<polygon points="0,50 50,100 100,50 50,0" />
</g></g>
        <g transform="translate(140,210) scale(0.14,0.14)"><g style="fill: rgb(25, 118, 210);" transform="">
<polygon points="0,50 50,100 100,50 50,0" />
</g></g>
        <g transform="translate(154,210) scale(0.14,0.14)"><g style="fill: rgb(25, 118, 210);" transform="">
<polygon points="0,50 50,100 100,50 50,0" />
</g></g>
        <g transform="translate(168,210) scale(0.14,0.14)"><g style="fill: rgb(25, 118, 210);" transform="">
<polygon points="0,50 50,100 100,50 50,0" />
</g></g>
        <g transform="translate(196,210) scale(0.14,0.14)"><g style="fill: rgb(25, 118, 210);" transform="">
<polygon points="0,50 50,100 100,50 50,0" />
</g></g>
        <g transform="translate(266,210) scale(0.14,0.14)"><g style="fill: rgb(25, 118, 210);" transform="">
<polygon points="0,50 50,100 100,50 50,0" />
</g></g>
        <g transform="translate(280,210) scale(0.14,0.14)"><g style="fill: rgb(25, 118, 210);" transform="">
<polygon points="0,50 50,100 100,50 50,0" />
</g></g>
        <g transform="translate(322,210) scale(0.14,0.14)"><g style="fill: rgb(25, 118, 210);" transform="">
<polygon points="0,50 50,100 100,50 50,0" />
</g></g>
        <g transform="translate(336,210) scale(0.14,0.14)"><g style="fill: rgb(25, 118, 210);" transform="">
<polygon points="0,50 50,100 100,50 50,0" />
</g></g>
        <g transform="translate(378,210) scale(0.14,0.14)"><g style="fill: rgb(25, 118, 210);" transform="">
<polygon points="0,50 50,100 100,50 50,0" />
</g></g>
        <g transform="translate(0,224) scale(0.14,0.14)"><g style="fill: rgb(25, 118, 210);" transform="">
<polygon points="0,50 50,100 100,50 50,0" />
</g></g>
        <g transform="translate(14,224) scale(0.14,0.14)"><g style="fill: rgb(25, 118, 210);" transform="">
<polygon points="0,50 50,100 100,50 50,0" />
</g></g>
        <g transform="translate(28,224) scale(0.14,0.14)"><g style="fill: rgb(25, 118, 210);" transform="">
<polygon points="0,50 50,100 100,50 50,0" />
</g></g>
        <g transform="translate(42,224) scale(0.14,0.14)"><g style="fill: rgb(25, 118, 210);" transform="">
<polygon points="0,50 50,100 100,50 50,0" />
</g></g>
        <g transform="translate(56,224) scale(0.14,0.14)"><g style="fill: rgb(25, 118, 210);" transform="">
<polygon points="0,50 50,100 100,50 50,0" />
</g></g>
        <g transform="translate(84,224) scale(0.14,0.14)"><g style="fill: rgb(25, 118, 210);" transform="">
<polygon points="0,50 50,100 100,50 50,0" />
</g></g>
        <g transform="translate(126,224) scale(0.14,0.14)"><g style="fill: rgb(25, 118, 210);" transform="">
<polygon points="0,50 50,100 100,50 50,0" />
</g></g>
        <g transform="translate(168,224) scale(0.14,0.14)"><g style="fill: rgb(25, 118, 210);" transform="">
<polygon points="0,50 50,100 100,50 50,0" />
</g></g>
        <g transform="translate(196,224) scale(0.14,0.14)"><g style="fill: rgb(25, 118, 210);" transform="">
<polygon points="0,50 50,100 100,50 50,0" />
</g></g>
        <g transform="translate(210,224) scale(0.14,0.14)"><g style="fill: rgb(25, 118, 210);" transform="">
<polygon points="0,50 50,100 100,50 50,0" />
</g></g>
        <g transform="translate(252,224) scale(0.14,0.14)"><g style="fill: rgb(25, 118, 210);" transform="">
<polygon points="0,50 50,100 100,50 50,0" />
</g></g>
        <g transform="translate(266,224) scale(0.14,0.14)"><g style="fill: rgb(25, 118, 210);" transform="">
<polygon points="0,50 50,100 100,50 50,0" />
</g></g>
        <g transform="translate(280,224) scale(0.14,0.14)"><g style="fill: rgb(25, 118, 210);" transform="">
<polygon points="0,50 50,100 100,50 50,0" />
</g></g>
        <g transform="translate(294,224) scale(0.14,0.14)"><g style="fill: rgb(25, 118, 210);" transform="">
<polygon points="0,50 50,100 100,50 50,0" />
</g></g>
        <g transform="translate(336,224) scale(0.14,0.14)"><g style="fill: rgb(25, 118, 210);" transform="">
<polygon points="0,50 50,100 100,50 50,0" />
</g></g>
        <g transform="translate(350,224) scale(0.14,0.14)"><g style="fill: rgb(25, 118, 210);" transform="">
<polygon points="0,50 50,100 100,50 50,0" />
</g></g>
        <g transform="translate(378,224) scale(0.14,0.14)"><g style="fill: rgb(25, 118, 210);" transform="">
<polygon points="0,50 50,100 100,50 50,0" />
</g></g>
        <g transform="translate(14,238) scale(0.14,0.14)"><g style="fill: rgb(25, 118, 210);" transform="">
<polygon points="0,50 50,100 100,50 50,0" />
</g></g>
        <g transform="translate(28,238) scale(0.14,0.14)"><g style="fill: rgb(25, 118, 210);" transform="">
<polygon points="0,50 50,100 100,50 50,0" />
</g></g>
        <g transform="translate(56,238) scale(0.14,0.14)"><g style="fill: rgb(25, 118, 210);" transform="">
<polygon points="0,50 50,100 100,50 50,0" />
</g></g>
        <g transform="translate(70,238) scale(0.14,0.14)"><g style="fill: rgb(25, 118, 210);" transform="">
<polygon points="0,50 50,100 100,50 50,0" />
</g></g>
        <g transform="translate(112,238) scale(0.14,0.14)"><g style="fill: rgb(25, 118, 210);" transform="">
<polygon points="0,50 50,100 100,50 50,0" />
</g></g>
        <g transform="translate(126,238) scale(0.14,0.14)"><g style="fill: rgb(25, 118, 210);" transform="">
<polygon points="0,50 50,100 100,50 50,0" />
</g></g>
        <g transform="translate(140,238) scale(0.14,0.14)"><g style="fill: rgb(25, 118, 210);" transform="">
<polygon points="0,50 50,100 100,50 50,0" />
</g></g>
        <g transform="translate(154,238) scale(0.14,0.14)"><g style="fill: rgb(25, 118, 210);" transform="">
<polygon points="0,50 50,100 100,50 50,0" />
</g></g>
        <g transform="translate(196,238) scale(0.14,0.14)"><g style="fill: rgb(25, 118, 210);" transform="">
<polygon points="0,50 50,100 100,50 50,0" />
</g></g>
        <g transform="translate(210,238) scale(0.14,0.14)"><g style="fill: rgb(25, 118, 210);" transform="">
<polygon points="0,50 50,100 100,50 50,0" />
</g></g>
        <g transform="translate(238,238) scale(0.14,0.14)"><g style="fill: rgb(25, 118, 210);" transform="">
<polygon points="0,50 50,100 100,50 50,0" />
</g></g>
        <g transform="translate(280,238) scale(0.14,0.14)"><g style="fill: rgb(25, 118, 210);" transform="">
<polygon points="0,50 50,100 100,50 50,0" />
</g></g>
        <g transform="translate(294,238) scale(0.14,0.14)"><g style="fill: rgb(25, 118, 210);" transform="">
<polygon points="0,50 50,100 100,50 50,0" />
</g></g>
        <g transform="translate(322,238) scale(0.14,0.14)"><g style="fill: rgb(25, 118, 210);" transform="">
<polygon points="0,50 50,100 100,50 50,0" />
</g></g>
        <g transform="translate(350,238) scale(0.14,0.14)"><g style="fill: rgb(25, 118, 210);" transform="">
<polygon points="0,50 50,100 100,50 50,0" />
</g></g>
        <g transform="translate(364,238) scale(0.14,0.14)"><g style="fill: rgb(25, 118, 210);" transform="">
<polygon points="0,50 50,100 100,50 50,0" />
</g></g>
        <g transform="translate(378,238) scale(0.14,0.14)"><g style="fill: rgb(25, 118, 210);" transform="">
<polygon points="0,50 50,100 100,50 50,0" />
</g></g>
        <g transform="translate(0,252) scale(0.14,0.14)"><g style="fill: rgb(25, 118, 210);" transform="">
<polygon points="0,50 50,100 100,50 50,0" />
</g></g>
        <g transform="translate(28,252) scale(0.14,0.14)"><g style="fill: rgb(25, 118, 210);" transform="">
<polygon points="0,50 50,100 100,50 50,0" />
</g></g>
        <g transform="translate(42,252) scale(0.14,0.14)"><g style="fill: rgb(25, 118, 210);" transform="">
<polygon points="0,50 50,100 100,50 50,0" />
</g></g>
        <g transform="translate(56,252) scale(0.14,0.14)"><g style="fill: rgb(25, 118, 210);" transform="">
<polygon points="0,50 50,100 100,50 50,0" />
</g></g>
        <g transform="translate(84,252) scale(0.14,0.14)"><g style="fill: rgb(25, 118, 210);" transform="">
<polygon points="0,50 50,100 100,50 50,0" />
</g></g>
        <g transform="translate(112,252) scale(0.14,0.14)"><g style="fill: rgb(25, 118, 210);" transform="">
<polygon points="0,50 50,100 100,50 50,0" />
</g></g>
        <g transform="translate(140,252) scale(0.14,0.14)"><g style="fill: rgb(25, 118, 210);" transform="">
<polygon points="0,50 50,100 100,50 50,0" />
</g></g>
        <g transform="translate(168,252) scale(0.14,0.14)"><g style="fill: rgb(25, 118, 210);" transform="">
<polygon points="0,50 50,100 100,50 50,0" />
</g></g>
        <g transform="translate(182,252) scale(0.14,0.14)"><g style="fill: rgb(25, 118, 210);" transform="">
<polygon points="0,50 50,100 100,50 50,0" />
</g></g>
        <g transform="translate(196,252) scale(0.14,0.14)"><g style="fill: rgb(25, 118, 210);" transform="">
<polygon points="0,50 50,100 100,50 50,0" />
</g></g>
        <g transform="translate(210,252) scale(0.14,0.14)"><g style="fill: rgb(25, 118, 210);" transform="">
<polygon points="0,50 50,100 100,50 50,0" />
</g></g>
        <g transform="translate(224,252) scale(0.14,0.14)"><g style="fill: rgb(25, 118, 210);" transform="">
<polygon points="0,50 50,100 100,50 50,0" />
</g></g>
        <g transform="translate(252,252) scale(0.14,0.14)"><g style="fill: rgb(25, 118, 210);" transform="">
<polygon points="0,50 50,100 100,50 50,0" />
</g></g>
        <g transform="translate(280,252) scale(0.14,0.14)"><g style="fill: rgb(25, 118, 210);" transform="">
<polygon points="0,50 50,100 100,50 50,0" />
</g></g>
        <g transform="translate(322,252) scale(0.14,0.14)"><g style="fill: rgb(25, 118, 210);" transform="">
<polygon points="0,50 50,100 100,50 50,0" />
</g></g>
        <g transform="translate(364,252) scale(0.14,0.14)"><g style="fill: rgb(25, 118, 210);" transform="">
<polygon points="0,50 50,100 100,50 50,0" />
</g></g>
        <g transform="translate(28,266) scale(0.14,0.14)"><g style="fill: rgb(25, 118, 210);" transform="">
<polygon points="0,50 50,100 100,50 50,0" />
</g></g>
        <g transform="translate(98,266) scale(0.14,0.14)"><g style="fill: rgb(25, 118, 210);" transform="">
<polygon points="0,50 50,100 100,50 50,0" />
</g></g>
        <g transform="translate(112,266) scale(0.14,0.14)"><g style="fill: rgb(25, 118, 210);" transform="">
<polygon points="0,50 50,100 100,50 50,0" />
</g></g>
        <g transform="translate(154,266) scale(0.14,0.14)"><g style="fill: rgb(25, 118, 210);" transform="">
<polygon points="0,50 50,100 100,50 50,0" />
</g></g>
        <g transform="translate(168,266) scale(0.14,0.14)"><g style="fill: rgb(25, 118, 210);" transform="">
<polygon points="0,50 50,100 100,50 50,0" />
</g></g>
        <g transform="translate(182,266) scale(0.14,0.14)"><g style="fill: rgb(25, 118, 210);" transform="">
<polygon points="0,50 50,100 100,50 50,0" />
</g></g>
        <g transform="translate(196,266) scale(0.14,0.14)"><g style="fill: rgb(25, 118, 210);" transform="">
<polygon points="0,50 50,100 100,50 50,0" />
</g></g>
        <g transform="translate(210,266) scale(0.14,0.14)"><g style="fill: rgb(25, 118, 210);" transform="">
<polygon points="0,50 50,100 100,50 50,0" />
</g></g>
        <g transform="translate(224,266) scale(0.14,0.14)"><g style="fill: rgb(25, 118, 210);" transform="">
<polygon points="0,50 50,100 100,50 50,0" />
</g></g>
        <g transform="translate(238,266) scale(0.14,0.14)"><g style="fill: rgb(25, 118, 210);" transform="">
<polygon points="0,50 50,100 100,50 50,0" />
</g></g>
        <g transform="translate(252,266) scale(0.14,0.14)"><g style="fill: rgb(25, 118, 210);" transform="">
<polygon points="0,50 50,100 100,50 50,0" />
</g></g>
        <g transform="translate(266,266) scale(0.14,0.14)"><g style="fill: rgb(25, 118, 210);" transform="">
<polygon points="0,50 50,100 100,50 50,0" />
</g></g>
        <g transform="translate(364,266) scale(0.14,0.14)"><g style="fill: rgb(25, 118, 210);" transform="">
<polygon points="0,50 50,100 100,50 50,0" />
</g></g>
        <g transform="translate(14,280) scale(0.14,0.14)"><g style="fill: rgb(25, 118, 210);" transform="">
<polygon points="0,50 50,100 100,50 50,0" />
</g></g>
        <g transform="translate(28,280) scale(0.14,0.14)"><g style="fill: rgb(25, 118, 210);" transform="">
<polygon points="0,50 50,100 100,50 50,0" />
</g></g>
        <g transform="translate(56,280) scale(0.14,0.14)"><g style="fill: rgb(25, 118, 210);" transform="">
<polygon points="0,50 50,100 100,50 50,0" />
</g></g>
        <g transform="translate(84,280) scale(0.14,0.14)"><g style="fill: rgb(25, 118, 210);" transform="">
<polygon points="0,50 50,100 100,50 50,0" />
</g></g>
        <g transform="translate(98,280) scale(0.14,0.14)"><g style="fill: rgb(25, 118, 210);" transform="">
<polygon points="0,50 50,100 100,50 50,0" />
</g></g>
        <g transform="translate(140,280) scale(0.14,0.14)"><g style="fill: rgb(25, 118, 210);" transform="">
<polygon points="0,50 50,100 100,50 50,0" />
</g></g>
        <g transform="translate(182,280) scale(0.14,0.14)"><g style="fill: rgb(25, 118, 210);" transform="">
<polygon points="0,50 50,100 100,50 50,0" />
</g></g>
        <g transform="translate(196,280) scale(0.14,0.14)"><g style="fill: rgb(25, 118, 210);" transform="">
<polygon points="0,50 50,100 100,50 50,0" />
</g></g>
        <g transform="translate(210,280) scale(0.14,0.14)"><g style="fill: rgb(25, 118, 210);" transform="">
<polygon points="0,50 50,100 100,50 50,0" />
</g></g>
        <g transform="translate(238,280) scale(0.14,0.14)"><g style="fill: rgb(25, 118, 210);" transform="">
<polygon points="0,50 50,100 100,50 50,0" />
</g></g>
        <g transform="translate(252,280) scale(0.14,0.14)"><g style="fill: rgb(25, 118, 210);" transform="">
<polygon points="0,50 50,100 100,50 50,0" />
</g></g>
        <g transform="translate(280,280) scale(0.14,0.14)"><g style="fill: rgb(25, 118, 210);" transform="">
<polygon points="0,50 50,100 100,50 50,0" />
</g></g>
        <g transform="translate(294,280) scale(0.14,0.14)"><g style="fill: rgb(25, 118, 210);" transform="">
<polygon points="0,50 50,100 100,50 50,0" />
</g></g>
        <g transform="translate(308,280) scale(0.14,0.14)"><g style="fill: rgb(25, 118, 210);" transform="">
<polygon points="0,50 50,100 100,50 50,0" />
</g></g>
        <g transform="translate(322,280) scale(0.14,0.14)"><g style="fill: rgb(25, 118, 210);" transform="">
<polygon points="0,50 50,100 100,50 50,0" />
</g></g>
        <g transform="translate(336,280) scale(0.14,0.14)"><g style="fill: rgb(25, 118, 210);" transform="">
<polygon points="0,50 50,100 100,50 50,0" />
</g></g>
        <g transform="translate(350,280) scale(0.14,0.14)"><g style="fill: rgb(25, 118, 210);" transform="">
<polygon points="0,50 50,100 100,50 50,0" />
</g></g>
        <g transform="translate(364,280) scale(0.14,0.14)"><g style="fill: rgb(25, 118, 210);" transform="">
<polygon points="0,50 50,100 100,50 50,0" />
</g></g>
        <g transform="translate(112,294) scale(0.14,0.14)"><g style="fill: rgb(25, 118, 210);" transform="">
<polygon points="0,50 50,100 100,50 50,0" />
</g></g>
        <g transform="translate(126,294) scale(0.14,0.14)"><g style="fill: rgb(25, 118, 210);" transform="">
<polygon points="0,50 50,100 100,50 50,0" />
</g></g>
        <g transform="translate(140,294) scale(0.14,0.14)"><g style="fill: rgb(25, 118, 210);" transform="">
<polygon points="0,50 50,100 100,50 50,0" />
</g></g>
        <g transform="translate(154,294) scale(0.14,0.14)"><g style="fill: rgb(25, 118, 210);" transform="">
<polygon points="0,50 50,100 100,50 50,0" />
</g></g>
        <g transform="translate(168,294) scale(0.14,0.14)"><g style="fill: rgb(25, 118, 210);" transform="">
<polygon points="0,50 50,100 100,50 50,0" />
</g></g>
        <g transform="translate(210,294) scale(0.14,0.14)"><g style="fill: rgb(25, 118, 210);" transform="">
<polygon points="0,50 50,100 100,50 50,0" />
</g></g>
        <g transform="translate(224,294) scale(0.14,0.14)"><g style="fill: rgb(25, 118, 210);" transform="">
<polygon points="0,50 50,100 100,50 50,0" />
</g></g>
        <g transform="translate(238,294) scale(0.14,0.14)"><g style="fill: rgb(25, 118, 210);" transform="">
<polygon points="0,50 50,100 100,50 50,0" />
</g></g>
        <g transform="translate(252,294) scale(0.14,0.14)"><g style="fill: rgb(25, 118, 210);" transform="">
<polygon points="0,50 50,100 100,50 50,0" />
</g></g>
        <g transform="translate(280,294) scale(0.14,0.14)"><g style="fill: rgb(25, 118, 210);" transform="">
<polygon points="0,50 50,100 100,50 50,0" />
</g></g>
        <g transform="translate(336,294) scale(0.14,0.14)"><g style="fill: rgb(25, 118, 210);" transform="">
<polygon points="0,50 50,100 100,50 50,0" />
</g></g>
        <g transform="translate(350,294) scale(0.14,0.14)"><g style="fill: rgb(25, 118, 210);" transform="">
<polygon points="0,50 50,100 100,50 50,0" />
</g></g>
        <g transform="translate(364,294) scale(0.14,0.14)"><g style="fill: rgb(25, 118, 210);" transform="">
<polygon points="0,50 50,100 100,50 50,0" />
</g></g>
        <g transform="translate(378,294) scale(0.14,0.14)"><g style="fill: rgb(25, 118, 210);" transform="">
<polygon points="0,50 50,100 100,50 50,0" />
</g></g>
        <g transform="translate(392,294) scale(0.14,0.14)"><g style="fill: rgb(25, 118, 210);" transform="">
<polygon points="0,50 50,100 100,50 50,0" />
</g></g>
        <g transform="translate(112,308) scale(0.14,0.14)"><g style="fill: rgb(25, 118, 210);" transform="">
<polygon points="0,50 50,100 100,50 50,0" />
</g></g>
        <g transform="translate(126,308) scale(0.14,0.14)"><g style="fill: rgb(25, 118, 210);" transform="">
<polygon points="0,50 50,100 100,50 50,0" />
</g></g>
        <g transform="translate(154,308) scale(0.14,0.14)"><g style="fill: rgb(25, 118, 210);" transform="">
<polygon points="0,50 50,100 100,50 50,0" />
</g></g>
        <g transform="translate(196,308) scale(0.14,0.14)"><g style="fill: rgb(25, 118, 210);" transform="">
<polygon points="0,50 50,100 100,50 50,0" />
</g></g>
        <g transform="translate(224,308) scale(0.14,0.14)"><g style="fill: rgb(25, 118, 210);" transform="">
<polygon points="0,50 50,100 100,50 50,0" />
</g></g>
        <g transform="translate(252,308) scale(0.14,0.14)"><g style="fill: rgb(25, 118, 210);" transform="">
<polygon points="0,50 50,100 100,50 50,0" />
</g></g>
        <g transform="translate(266,308) scale(0.14,0.14)"><g style="fill: rgb(25, 118, 210);" transform="">
<polygon points="0,50 50,100 100,50 50,0" />
</g></g>
        <g transform="translate(280,308) scale(0.14,0.14)"><g style="fill: rgb(25, 118, 210);" transform="">
<polygon points="0,50 50,100 100,50 50,0" />
</g></g>
        <g transform="translate(308,308) scale(0.14,0.14)"><g style="fill: rgb(25, 118, 210);" transform="">
<polygon points="0,50 50,100 100,50 50,0" />
</g></g>
        <g transform="translate(336,308) scale(0.14,0.14)"><g style="fill: rgb(25, 118, 210);" transform="">
<polygon points="0,50 50,100 100,50 50,0" />
</g></g>
        <g transform="translate(350,308) scale(0.14,0.14)"><g style="fill: rgb(25, 118, 210);" transform="">
<polygon points="0,50 50,100 100,50 50,0" />
</g></g>
        <g transform="translate(378,308) scale(0.14,0.14)"><g style="fill: rgb(25, 118, 210);" transform="">
<polygon points="0,50 50,100 100,50 50,0" />
</g></g>
        <g transform="translate(112,322) scale(0.14,0.14)"><g style="fill: rgb(25, 118, 210);" transform="">
<polygon points="0,50 50,100 100,50 50,0" />
</g></g>
        <g transform="translate(126,322) scale(0.14,0.14)"><g style="fill: rgb(25, 118, 210);" transform="">
<polygon points="0,50 50,100 100,50 50,0" />
</g></g>
        <g transform="translate(140,322) scale(0.14,0.14)"><g style="fill: rgb(25, 118, 210);" transform="">
<polygon points="0,50 50,100 100,50 50,0" />
</g></g>
        <g transform="translate(154,322) scale(0.14,0.14)"><g style="fill: rgb(25, 118, 210);" transform="">
<polygon points="0,50 50,100 100,50 50,0" />
</g></g>
        <g transform="translate(168,322) scale(0.14,0.14)"><g style="fill: rgb(25, 118, 210);" transform="">
<polygon points="0,50 50,100 100,50 50,0" />
</g></g>
        <g transform="translate(182,322) scale(0.14,0.14)"><g style="fill: rgb(25, 118, 210);" transform="">
<polygon points="0,50 50,100 100,50 50,0" />
</g></g>
        <g transform="translate(196,322) scale(0.14,0.14)"><g style="fill: rgb(25, 118, 210);" transform="">
<polygon points="0,50 50,100 100,50 50,0" />
</g></g>
        <g transform="translate(210,322) scale(0.14,0.14)"><g style="fill: rgb(25, 118, 210);" transform="">
<polygon points="0,50 50,100 100,50 50,0" />
</g></g>
        <g transform="translate(224,322) scale(0.14,0.14)"><g style="fill: rgb(25, 118, 210);" transform="">
<polygon points="0,50 50,100 100,50 50,0" />
</g></g>
        <g transform="translate(280,322) scale(0.14,0.14)"><g style="fill: rgb(25, 118, 210);" transform="">
<polygon points="0,50 50,100 100,50 50,0" />
</g></g>
        <g transform="translate(336,322) scale(0.14,0.14)"><g style="fill: rgb(25, 118, 210);" transform="">
<polygon points="0,50 50,100 100,50 50,0" />
</g></g>
        <g transform="translate(350,322) scale(0.14,0.14)"><g style="fill: rgb(25, 118, 210);" transform="">
<polygon points="0,50 50,100 100,50 50,0" />
</g></g>
        <g transform="translate(126,336) scale(0.14,0.14)"><g style="fill: rgb(25, 118, 210);" transform="">
<polygon points="0,50 50,100 100,50 50,0" />
</g></g>
        <g transform="translate(140,336) scale(0.14,0.14)"><g style="fill: rgb(25, 118, 210);" transform="">
<polygon points="0,50 50,100 100,50 50,0" />
</g></g>
        <g transform="translate(168,336) scale(0.14,0.14)"><g style="fill: rgb(25, 118, 210);" transform="">
<polygon points="0,50 50,100 100,50 50,0" />
</g></g>
        <g transform="translate(210,336) scale(0.14,0.14)"><g style="fill: rgb(25, 118, 210);" transform="">
<polygon points="0,50 50,100 100,50 50,0" />
</g></g>
        <g transform="translate(238,336) scale(0.14,0.14)"><g style="fill: rgb(25, 118, 210);" transform="">
<polygon points="0,50 50,100 100,50 50,0" />
</g></g>
        <g transform="translate(252,336) scale(0.14,0.14)"><g style="fill: rgb(25, 118, 210);" transform="">
<polygon points="0,50 50,100 100,50 50,0" />
</g></g>
        <g transform="translate(280,336) scale(0.14,0.14)"><g style="fill: rgb(25, 118, 210);" transform="">
<polygon points="0,50 50,100 100,50 50,0" />
</g></g>
        <g transform="translate(294,336) scale(0.14,0.14)"><g style="fill: rgb(25, 118, 210);" transform="">
<polygon points="0,50 50,100 100,50 50,0" />
</g></g>
        <g transform="translate(308,336) scale(0.14,0.14)"><g style="fill: rgb(25, 118, 210);" transform="">
<polygon points="0,50 50,100 100,50 50,0" />
</g></g>
        <g transform="translate(322,336) scale(0.14,0.14)"><g style="fill: rgb(25, 118, 210);" transform="">
<polygon points="0,50 50,100 100,50 50,0" />
</g></g>
        <g transform="translate(336,336) scale(0.14,0.14)"><g style="fill: rgb(25, 118, 210);" transform="">
<polygon points="0,50 50,100 100,50 50,0" />
</g></g>
        <g transform="translate(364,336) scale(0.14,0.14)"><g style="fill: rgb(25, 118, 210);" transform="">
<polygon points="0,50 50,100 100,50 50,0" />
</g></g>
        <g transform="translate(112,350) scale(0.14,0.14)"><g style="fill: rgb(25, 118, 210);" transform="">
<polygon points="0,50 50,100 100,50 50,0" />
</g></g>
        <g transform="translate(154,350) scale(0.14,0.14)"><g style="fill: rgb(25, 118, 210);" transform="">
<polygon points="0,50 50,100 100,50 50,0" />
</g></g>
        <g transform="translate(168,350) scale(0.14,0.14)"><g style="fill: rgb(25, 118, 210);" transform="">
<polygon points="0,50 50,100 100,50 50,0" />
</g></g>
        <g transform="translate(182,350) scale(0.14,0.14)"><g style="fill: rgb(25, 118, 210);" transform="">
<polygon points="0,50 50,100 100,50 50,0" />
</g></g>
        <g transform="translate(210,350) scale(0.14,0.14)"><g style="fill: rgb(25, 118, 210);" transform="">
<polygon points="0,50 50,100 100,50 50,0" />
</g></g>
        <g transform="translate(224,350) scale(0.14,0.14)"><g style="fill: rgb(25, 118, 210);" transform="">
<polygon points="0,50 50,100 100,50 50,0" />
</g></g>
        <g transform="translate(266,350) scale(0.14,0.14)"><g style="fill: rgb(25, 118, 210);" transform="">
<polygon points="0,50 50,100 100,50 50,0" />
</g></g>
        <g transform="translate(280,350) scale(0.14,0.14)"><g style="fill: rgb(25, 118, 210);" transform="">
<polygon points="0,50 50,100 100,50 50,0" />
</g></g>
        <g transform="translate(294,350) scale(0.14,0.14)"><g style="fill: rgb(25, 118, 210);" transform="">
<polygon points="0,50 50,100 100,50 50,0" />
</g></g>
        <g transform="translate(336,350) scale(0.14,0.14)"><g style="fill: rgb(25, 118, 210);" transform="">
<polygon points="0,50 50,100 100,50 50,0" />
</g></g>
        <g transform="translate(350,350) scale(0.14,0.14)"><g style="fill: rgb(25, 118, 210);" transform="">
<polygon points="0,50 50,100 100,50 50,0" />
</g></g>
        <g transform="translate(392,350) scale(0.14,0.14)"><g style="fill: rgb(25, 118, 210);" transform="">
<polygon points="0,50 50,100 100,50 50,0" />
</g></g>
        <g transform="translate(112,364) scale(0.14,0.14)"><g style="fill: rgb(25, 118, 210);" transform="">
<polygon points="0,50 50,100 100,50 50,0" />
</g></g>
        <g transform="translate(126,364) scale(0.14,0.14)"><g style="fill: rgb(25, 118, 210);" transform="">
<polygon points="0,50 50,100 100,50 50,0" />
</g></g>
        <g transform="translate(140,364) scale(0.14,0.14)"><g style="fill: rgb(25, 118, 210);" transform="">
<polygon points="0,50 50,100 100,50 50,0" />
</g></g>
        <g transform="translate(154,364) scale(0.14,0.14)"><g style="fill: rgb(25, 118, 210);" transform="">
<polygon points="0,50 50,100 100,50 50,0" />
</g></g>
        <g transform="translate(168,364) scale(0.14,0.14)"><g style="fill: rgb(25, 118, 210);" transform="">
<polygon points="0,50 50,100 100,50 50,0" />
</g></g>
        <g transform="translate(196,364) scale(0.14,0.14)"><g style="fill: rgb(25, 118, 210);" transform="">
<polygon points="0,50 50,100 100,50 50,0" />
</g></g>
        <g transform="translate(238,364) scale(0.14,0.14)"><g style="fill: rgb(25, 118, 210);" transform="">
<polygon points="0,50 50,100 100,50 50,0" />
</g></g>
        <g transform="translate(252,364) scale(0.14,0.14)"><g style="fill: rgb(25, 118, 210);" transform="">
<polygon points="0,50 50,100 100,50 50,0" />
</g></g>
        <g transform="translate(294,364) scale(0.14,0.14)"><g style="fill: rgb(25, 118, 210);" transform="">
<polygon points="0,50 50,100 100,50 50,0" />
</g></g>
        <g transform="translate(322,364) scale(0.14,0.14)"><g style="fill: rgb(25, 118, 210);" transform="">
<polygon points="0,50 50,100 100,50 50,0" />
</g></g>
        <g transform="translate(364,364) scale(0.14,0.14)"><g style="fill: rgb(25, 118, 210);" transform="">
<polygon points="0,50 50,100 100,50 50,0" />
</g></g>
        <g transform="translate(392,364) scale(0.14,0.14)"><g style="fill: rgb(25, 118, 210);" transform="">
<polygon points="0,50 50,100 100,50 50,0" />
</g></g>
        <g transform="translate(154,378) scale(0.14,0.14)"><g style="fill: rgb(25, 118, 210);" transform="">
<polygon points="0,50 50,100 100,50 50,0" />
</g></g>
        <g transform="translate(168,378) scale(0.14,0.14)"><g style="fill: rgb(25, 118, 210);" transform="">
<polygon points="0,50 50,100 100,50 50,0" />
</g></g>
        <g transform="translate(182,378) scale(0.14,0.14)"><g style="fill: rgb(25, 118, 210);" transform="">
<polygon points="0,50 50,100 100,50 50,0" />
</g></g>
        <g transform="translate(210,378) scale(0.14,0.14)"><g style="fill: rgb(25, 118, 210);" transform="">
<polygon points="0,50 50,100 100,50 50,0" />
</g></g>
        <g transform="translate(224,378) scale(0.14,0.14)"><g style="fill: rgb(25, 118, 210);" transform="">
<polygon points="0,50 50,100 100,50 50,0" />
</g></g>
        <g transform="translate(280,378) scale(0.14,0.14)"><g style="fill: rgb(25, 118, 210);" transform="">
<polygon points="0,50 50,100 100,50 50,0" />
</g></g>
        <g transform="translate(294,378) scale(0.14,0.14)"><g style="fill: rgb(25, 118, 210);" transform="">
<polygon points="0,50 50,100 100,50 50,0" />
</g></g>
        <g transform="translate(322,378) scale(0.14,0.14)"><g style="fill: rgb(25, 118, 210);" transform="">
<polygon points="0,50 50,100 100,50 50,0" />
</g></g>
        <g transform="translate(350,378) scale(0.14,0.14)"><g style="fill: rgb(25, 118, 210);" transform="">
<polygon points="0,50 50,100 100,50 50,0" />
</g></g>
        <g transform="translate(378,378) scale(0.14,0.14)"><g style="fill: rgb(25, 118, 210);" transform="">
<polygon points="0,50 50,100 100,50 50,0" />
</g></g>
        <g transform="translate(112,392) scale(0.14,0.14)"><g style="fill: rgb(25, 118, 210);" transform="">
<polygon points="0,50 50,100 100,50 50,0" />
</g></g>
        <g transform="translate(126,392) scale(0.14,0.14)"><g style="fill: rgb(25, 118, 210);" transform="">
<polygon points="0,50 50,100 100,50 50,0" />
</g></g>
        <g transform="translate(154,392) scale(0.14,0.14)"><g style="fill: rgb(25, 118, 210);" transform="">
<polygon points="0,50 50,100 100,50 50,0" />
</g></g>
        <g transform="translate(168,392) scale(0.14,0.14)"><g style="fill: rgb(25, 118, 210);" transform="">
<polygon points="0,50 50,100 100,50 50,0" />
</g></g>
        <g transform="translate(210,392) scale(0.14,0.14)"><g style="fill: rgb(25, 118, 210);" transform="">
<polygon points="0,50 50,100 100,50 50,0" />
</g></g>
        <g transform="translate(252,392) scale(0.14,0.14)"><g style="fill: rgb(25, 118, 210);" transform="">
<polygon points="0,50 50,100 100,50 50,0" />
</g></g>
        <g transform="translate(266,392) scale(0.14,0.14)"><g style="fill: rgb(25, 118, 210);" transform="">
<polygon points="0,50 50,100 100,50 50,0" />
</g></g>
        <g transform="translate(280,392) scale(0.14,0.14)"><g style="fill: rgb(25, 118, 210);" transform="">
<polygon points="0,50 50,100 100,50 50,0" />
</g></g>
        <g transform="translate(308,392) scale(0.14,0.14)"><g style="fill: rgb(25, 118, 210);" transform="">
<polygon points="0,50 50,100 100,50 50,0" />
</g></g>
        <g transform="translate(350,392) scale(0.14,0.14)"><g style="fill: rgb(25, 118, 210);" transform="">
<polygon points="0,50 50,100 100,50 50,0" />
</g></g>
        <g transform="translate(378,392) scale(0.14,0.14)"><g style="fill: rgb(25, 118, 210);" transform="">
<polygon points="0,50 50,100 100,50 50,0" />
</g></g>
        <g transform="translate(0,0) scale(0.98, 0.98)"><g style="fill: rgb(25, 118, 210);" transform="">
<g>
	<path style="fill:none;" d="M65.859,15.008H34.141c-4.082,0-7.869,1.258-10.979,3.398c-2.419,1.665-4.428,3.864-5.848,6.421
		C15.838,27.484,15,30.526,15,33.758v32.471c0,10.344,8.586,18.76,19.145,18.76L50,84.992l15.855-0.004
		C76.414,84.988,85,76.572,85,66.229V33.758C85,23.419,76.414,15.008,65.859,15.008z" />
    <path d="M65.859,0.008H34.141h0C18.683,0.008,5.587,10.221,1.4,24.18c-0.433,1.444-0.771,2.928-1.006,4.445
		C0.135,30.299,0,32.013,0,33.758v32.471c0,18.619,15.32,33.76,34.141,33.76L50,99.992l15.859-0.004
		c18.82,0,34.141-15.141,34.141-33.76V33.758C100,15.148,84.68,0.008,65.859,0.008z M85,66.229c0,10.344-8.586,18.76-19.145,18.76
		L50,84.992l-15.855-0.004C23.586,84.988,15,76.572,15,66.229V33.758c0-3.231,0.838-6.273,2.313-8.931
		c1.42-2.557,3.429-4.756,5.848-6.421c3.11-2.141,6.897-3.398,10.979-3.398h31.719C76.414,15.008,85,23.419,85,33.758V66.229z" />
</g>
</g></g>
        <g transform="translate(308,0) scale(0.98, 0.98)"><g style="fill: rgb(25, 118, 210);" transform="">
<g>
	<path style="fill:none;" d="M65.859,15.008H34.141c-4.082,0-7.869,1.258-10.979,3.398c-2.419,1.665-4.428,3.864-5.848,6.421
		C15.838,27.484,15,30.526,15,33.758v32.471c0,10.344,8.586,18.76,19.145,18.76L50,84.992l15.855-0.004
		C76.414,84.988,85,76.572,85,66.229V33.758C85,23.419,76.414,15.008,65.859,15.008z" />
    <path d="M65.859,0.008H34.141h0C18.683,0.008,5.587,10.221,1.4,24.18c-0.433,1.444-0.771,2.928-1.006,4.445
		C0.135,30.299,0,32.013,0,33.758v32.471c0,18.619,15.32,33.76,34.141,33.76L50,99.992l15.859-0.004
		c18.82,0,34.141-15.141,34.141-33.76V33.758C100,15.148,84.68,0.008,65.859,0.008z M85,66.229c0,10.344-8.586,18.76-19.145,18.76
		L50,84.992l-15.855-0.004C23.586,84.988,15,76.572,15,66.229V33.758c0-3.231,0.838-6.273,2.313-8.931
		c1.42-2.557,3.429-4.756,5.848-6.421c3.11-2.141,6.897-3.398,10.979-3.398h31.719C76.414,15.008,85,23.419,85,33.758V66.229z" />
</g>
</g></g>
        <g transform="translate(0,308) scale(0.98, 0.98)"><g style="fill: rgb(25, 118, 210);" transform="">
<g>
	<path style="fill:none;" d="M65.859,15.008H34.141c-4.082,0-7.869,1.258-10.979,3.398c-2.419,1.665-4.428,3.864-5.848,6.421
		C15.838,27.484,15,30.526,15,33.758v32.471c0,10.344,8.586,18.76,19.145,18.76L50,84.992l15.855-0.004
		C76.414,84.988,85,76.572,85,66.229V33.758C85,23.419,76.414,15.008,65.859,15.008z" />
    <path d="M65.859,0.008H34.141h0C18.683,0.008,5.587,10.221,1.4,24.18c-0.433,1.444-0.771,2.928-1.006,4.445
		C0.135,30.299,0,32.013,0,33.758v32.471c0,18.619,15.32,33.76,34.141,33.76L50,99.992l15.859-0.004
		c18.82,0,34.141-15.141,34.141-33.76V33.758C100,15.148,84.68,0.008,65.859,0.008z M85,66.229c0,10.344-8.586,18.76-19.145,18.76
		L50,84.992l-15.855-0.004C23.586,84.988,15,76.572,15,66.229V33.758c0-3.231,0.838-6.273,2.313-8.931
		c1.42-2.557,3.429-4.756,5.848-6.421c3.11-2.141,6.897-3.398,10.979-3.398h31.719C76.414,15.008,85,23.419,85,33.758V66.229z" />
</g>
</g></g>
        <g transform="translate(28,28) scale(0.42, 0.42)"><g style="fill: rgb(25, 118, 210);" transform="">
<g>
	<g id="XMLID_1_">
		<g>
			<path d="M27.351,100c-15.09,0-27.365-12.032-27.365-26.808V26.794c0-4.616,1.2-8.96,3.301-12.761
				c2.029-3.658,4.901-6.802,8.36-9.174C16.09,1.801,21.506,0,27.336,0h45.327c15.076,0,27.351,12.018,27.351,26.793v46.398
				c0,14.775-12.274,26.808-27.351,26.808H50H27.351z" />
		</g>
        <g>
		</g>
	</g>
</g>
</g></g>
        <g transform="translate(336,28) scale(0.42, 0.42)"><g style="fill: rgb(25, 118, 210);" transform="">
<g>
	<g id="XMLID_1_">
		<g>
			<path d="M27.351,100c-15.09,0-27.365-12.032-27.365-26.808V26.794c0-4.616,1.2-8.96,3.301-12.761
				c2.029-3.658,4.901-6.802,8.36-9.174C16.09,1.801,21.506,0,27.336,0h45.327c15.076,0,27.351,12.018,27.351,26.793v46.398
				c0,14.775-12.274,26.808-27.351,26.808H50H27.351z" />
		</g>
        <g>
		</g>
	</g>
</g>
</g></g>
        <g transform="translate(28,336) scale(0.42, 0.42)"><g style="fill: rgb(25, 118, 210);" transform="">
<g>
	<g id="XMLID_1_">
		<g>
			<path d="M27.351,100c-15.09,0-27.365-12.032-27.365-26.808V26.794c0-4.616,1.2-8.96,3.301-12.761
				c2.029-3.658,4.901-6.802,8.36-9.174C16.09,1.801,21.506,0,27.336,0h45.327c15.076,0,27.351,12.018,27.351,26.793v46.398
				c0,14.775-12.274,26.808-27.351,26.808H50H27.351z" />
		</g>
        <g>
		</g>
	</g>
</g>
</g></g></g></svg>